<?xml version="1.0" encoding="UTF-8"?>
<svg id="Capa_1" xmlns="http://www.w3.org/2000/svg" version="1.1" xmlns:xlink="http://www.w3.org/1999/xlink" viewBox="0 0 243 269">
  <!-- Generator: Adobe Illustrator 29.0.1, SVG Export Plug-In . SVG Version: 2.1.0 Build 192)  -->
  <defs>
    <style>
      .st0 {
        fill: #fefffe;
      }

      .st1 {
        fill: none;
      }

      .st2 {
        fill: #0b54c3;
      }

      .st3 {
        clip-path: url(#clippath);
      }
    </style>
    <clipPath id="clippath">
      <circle class="st1" cx="121.5" cy="134.5" r="92.7"/>
    </clipPath>
  </defs>
  <path class="st1" d="M0,0h247.3v269H0V0Z"/>
  <g class="st3">
    <g>
      <path class="st2" d="M118.6,41.5h6l8.5.8,7.8,1.2,6,1.5,8.2,2.8,5.8,2.5,4,2,4.2,2.2,5.8,3.8,3.5,2.5,2.8,2.2,3.8,3.2,6.5,6.5,2.2,2.8,3,3.8,2.8,4,3.2,5.2,3.5,6.8,2.8,6.5,2.2,6.8,1.8,7,1.2,7.5,3.5,4.5.2,4v6.2l-3.8,8.2-1.2,7.5-1.8,7-2.5,7.5-2.5,5.8-2,4-2,3.8-2.5,4-3,4.2-2,2.5-3.2,4-2,2-1.8,2-2,2-2,1.8-3.5,3-5,3.8-4.2,2.8-5.2,3-5.5,2.8-7,2.8-6.2,2-6.2,1.5-5.5,1-6.8.8-3.5.2h-5.8l-8.5-.8-7.5-1.2-7-1.8-8.2-2.8-6.8-3-4.8-2.5-5-3-4.2-3-3.2-2.5-3.2-2.8-2.5-2.2-5.5-5.5-4.5-5.5-3.2-4.5-3.2-5.2-2.2-4-3.2-6.8-2.5-6.8-1.8-6.2-1.2-5.5-1-6.2-.5-4.8v-12.2l.8-7,1.8-9,1.8-6.2,2.2-6.5,2.8-6.2,3-5.5,2.8-4.5,2.2-3.2,3-4,2.8-3.2,3.5-3.8,3.8-3.8,2-1.8,4-3.2,4.5-3.2,5.2-3.2,4-2.2,6.2-3,6.8-2.5,6.8-2,7-1.5,6.8-1,6-.5Z"/>
      <path class="st0" d="M97.4,139h15.2l2.5,1.2,1.5,1.8.2.8v16l-.8,2-1.8,1.5-1.8.5h-15.2l-2.2-.8-1.5-1.8-.5-1.8v-16l1.5-2,2-1.2.8-.2Z"/>
      <path class="st0" d="M130.9,139h15.2l2.5,1.2,1.2,1.5.2,1v15.8l-.8,2.5-1,1-1.2.5-1.5.2h-15.2l-1.8-.8-1.2-1.2-.8-1.5-.2-1.2v-15l1.2-2,1.8-1.5,1.5-.5Z"/>
      <path class="st0" d="M130.9,105.8h14.8l2,.5,1.8,1.5.8,2v15.8l-.8,1.8-1.2,1.2-1,.8-1,.2h-16l-1.8-1-1.5-2-.5-1.8v-15l1.5-2.5,1.8-1.2,1.2-.2Z"/>
      <path class="st0" d="M97.4,105.8h14.2l2,.5,2.2,1.5.8,1,.2.8v16.2l-.8,1.5-1.8,1.8-1.2.5h-16l-1.8-.8-1.5-1.8-.8-2v-15.5l1-1.8,2-1.8,1.2-.2Z"/>
      <path class="st0" d="M86.4,86.8h12.2l1.8.8,1.2,1.2.8,1.2.2,2.2-1,2-2,1.8-.8.2-11.2.2-2,1-1.2,1.5-.5,1.5-.2,10-.5,2.2-1.8,1.8-1.8.8h-1.8l-2-1.2-1.5-1.8-.2-.8v-12.2l.5-2.5,1-2.2,1.5-2.2,2.8-2.8,2.5-1.5,2.8-1,1.2-.2Z"/>
      <path class="st0" d="M144.4,86.8h12.2l4,1,2.8,1.8,1.8,1.5,2.2,3,1.2,2.5.5,2.5v12.2l-.8,2-1.5,1.5-.8.2h-3.5l-2-1.8-1-2.2-.2-11-.8-1.8-1.5-1.2-1.5-.5-11.2-.2-1.5-.8-1.5-1.8-.8-2,.5-2.2,1.8-2,1.5-.8Z"/>
      <path class="st0" d="M77.6,153.5h2.2l2,1,1.2,1.5.5,1.5.2,10.5.8,2,1.2,1.5,1.5.5,10.8.2,2.5,1,1.8,2,.2,2.2-.5,1.8-1.5,1.8-1,.5-1.5.2h-10.8l-4-.8-2.8-1.5-2.5-2.2-2-2.2-1.2-2.8-.8-3.5v-12.2l1.8-2,1.8-1Z"/>
      <path class="st0" d="M163.1,153.5h2.5l2,1,1.2,1.5.2.8v12.5l-.8,3.2-1.5,2.8-2.2,2.5-2,1.8-3.5,1.8-3.2.5h-11.2l-2-.8-1.5-1.8-.5-2.5.8-2,1.2-1.5,2.2-1,10.8-.2,2.5-1,1-1.5.2-1,.2-11.2,1.5-2.5,2-1.2Z"/>
    </g>
  </g>
</svg>